<?xml version="1.0" standalone="no"?>
<!DOCTYPE svg PUBLIC "-//W3C//DTD SVG 1.1//EN" "http://www.w3.org/Graphics/SVG/1.1/DTD/svg11.dtd" >
<svg xmlns="http://www.w3.org/2000/svg" xmlns:xlink="http://www.w3.org/1999/xlink" version="1.1">
<metadata></metadata>
<defs>
<font id="green_screenregular" horiz-adv-x="1366" >
<font-face units-per-em="2048" ascent="1707" descent="-341" />
<missing-glyph horiz-adv-x="500" />
<glyph horiz-adv-x="0" />
<glyph unicode="&#xd;" d="M0 171v170h171v171h341v1024h853v-683h-512v-682h-170v-171h-512v171h-171zM853 1024h342v341h-342v-341z" />
<glyph d="M0 171v1194h171l21 171h1003v-171h170v-1194h-170l-22 -171h-1002v171h-171zM171 341h170v-170h683v170h171v854h-171v170h-683v-170h-170v-854zM341 512v171h683v-171h-171v-171h-341v171h-171zM341 853v171h171v-171h-171zM853 853v171h171v-171h-171z" />
<glyph d="M0 171v1194h171l21 171h1003v-171h170v-1194h-170l-22 -171h-1002v171h-171zM341 512h171v-171h341v171h171v171h-683v-171zM341 853h171v171h-171v-171zM853 853h171v171h-171v-171z" />
<glyph d="M0 512v683h171v170h170v-170h171v-171h171v171h170v170h171v-170h171v-683h-171v-171h-171v-170h-170v-171h-171v171h-171v170h-170v171h-171z" />
<glyph d="M0 683v341h171v171h170v170h171v171h171v-171h170v-170h171v-171h171v-341h-171v-171h-171v-171h-170v-170h-171v170h-171v171h-170v171h-171z" />
<glyph d="M0 512v512h341v341h171v171h341v-171h171v-341h341v-512h-512v-341h342v-171h-1024v171h341v341h-512zM512 512h341v341h-341v-341z" />
<glyph d="M0 683v341h171v171h170v170h171v171h341v-171h171v-170h171v-171h170v-341h-170v-171h-342v-341h342v-171h-1024v171h341v341h-341v171h-171z" />
<glyph d="M171 512v341h170v171h683v-171h171v-341h-171v-171h-683v171h-170z" />
<glyph d="M0 -341v2048h1365v-2048h-1365zM171 512h170v-171h683v171h171v341h-171v171h-683v-171h-170v-341z" />
<glyph unicode="&#x9;" d="M171 171v1024h170v170h683v-170h171v-1024h-171v-171h-683v171h-170zM341 512h171v-171h341v171h171v341h-171v171h-341v-171h-171v-341z" />
<glyph unicode="&#xa;" d="M0 -341v2048h1365v-2048h-1365zM171 171h170v-171h683v171h171v1024h-171v170h-683v-170h-170v-1024zM341 512v341h171v171h341v-171h171v-341h-171v-171h-341v171h-171z" />
<glyph d="M0 171v682h171v171h170v171h342v170h-342v171h854v-683h-171v342h-171v-171h-170v-171l170 -21v-149h171v-512h-171v-171h-682v171h-171zM341 171h342v512h-342v-512z" />
<glyph d="M171 341v171h341v171l-171 21v149h-170v512h170v171h683v-171h171v-512h-171v-170h-171v-171h342v-171h-342v-341h-341v341h-341zM512 853h341v512h-341v-512z" />
<glyph d="M0 -171v512h171v1195h1194v-1365h-170v-171h-342v512h171v512h-512v-1024h-171v-171h-341zM512 1195h512v170h-512v-170z" />
<glyph d="M0 171v170h171v171l-171 21v320h171v171h-171v171h341v-171h171l21 341h320v-341h171v171h341v-171h-170v-171l170 -21v-320h-170v-171h170v-170h-341v170h-171l-21 -341h-320v341h-171v-170h-341zM0 171v170h171v171l-171 21v320h171v171h-171v171h341v-171h171l21 341 h320v-341h171v171h341v-171h-170v-171l170 -21v-320h-170v-171h170v-170h-341v170h-171l-21 -341h-320v341h-171v-170h-341zM512 512h341v341h-341v-341z" />
<glyph d="M0 0v1536h171v-171h170v-170h171v-171h341v-171h342v-170h-342v-171h-341v-171h-171v-170h-170v-171h-171z" />
<glyph d="M0 683v170h341v171h342v171h170v170h171v171h171v-1536h-171v171h-171v170h-170v171h-342v171h-341z" />
<glyph d="M171 341v171h341v512h-341v171h170v170h171v171h341v-171h171v-170h171v-171h-342v-512h342v-171h-171v-170h-171v-171h-341v171h-171v170h-170z" />
<glyph d="M171 0v341h341v-341h-341zM171 683v853h341v-853h-341zM853 0v341h342v-341h-342zM853 683v853h342v-853h-342z" />
<glyph d="M0 853v512h171l21 171h1173v-1536h-341v1365h-171v-1365h-341v683h-341v170h-171zM341 853h171v512h-171v-512z" />
<glyph d="M0 0v171h341v-171h512v171h-170v170h-342v171l-170 21v320h170v342h-170v341h1024v-171h170v-170h-341v170h-512v-170h171v-171h341v-171l171 -21v-320h-171v-341h171v-342h-1024v171h-171zM512 512h341v341h-341v-341z" />
<glyph d="M0 0v512h1195v-512h-1195z" />
<glyph d="M171 0h341v171h-171v170h-170v171h341v512h-341v171h170v170h171v171h341v-171h171v-170h171v-171h-342v-512h342v-171h-171v-170h-171v-171h342v-171h-1024v171z" />
<glyph d="M171 1024v171h170v170h171v171h341v-171h171v-170h171v-171h-342v-1024h-341v1024h-341z" />
<glyph d="M171 341v171h341v1024h341v-1024h342v-171h-171v-170h-171v-171h-341v171h-171v170h-170z" />
<glyph d="M0 683v170h683v171h-171v171h341v-171h171v-171h171v-170h-171v-171h-171v-171h-341v171h171v171h-683z" />
<glyph d="M0 683v170h171v171h170v171h342v-171h-171v-171h683v-170h-683v-171h171v-171h-342v171h-170v171h-171z" />
<glyph d="M0 341v683h341v-512h854v-171h-1195z" />
<glyph d="M0 683v170h171v171h170v171h171v-342h341v342h171v-171h171v-171h170v-170h-170v-171h-171v-171h-171v342h-341v-342h-171v171h-170v171h-171z" />
<glyph d="M0 0v341h171v342h170v341h171v341h171v-341h170v-341h171v-342h171v-341h-1195z" />
<glyph d="M0 1024v341h1195v-341h-171v-341h-171v-342h-170v-341h-171v341h-171v342h-170v341h-171z" />
<glyph unicode=" " />
<glyph unicode="!" d="M171 853v512h170v171h342v-171h170v-512h-170v-341h-342v341h-170zM341 0v341h342v-341h-342z" />
<glyph unicode="&#x22;" d="M171 1024v512h341v-683h-171v171h-170zM853 853v683h342v-512h-171v-171h-171z" />
<glyph unicode="#" d="M0 341v171h171v512h-171v171h171v341h341v-341h171v341h341v-341h171v-171h-171v-512h171v-171h-171v-341h-341v341h-171v-341h-341v341h-171zM512 512h171v512h-171v-512z" />
<glyph unicode="$" d="M0 171v170h683v342h-512v170h-171v342h171v170h170v342h342v-342h341v-170h-683v-342h512v-170h171v-342h-171v-170h-170v-342h-342v342h-341z" />
<glyph unicode="%" d="M0 0v341h171v171h170v171h171v170h171v171h170v171h171v-342h-171v-170h-170v-171h-171v-171h-171v-170h-170v-171h-171zM0 853v342h341v-342h-341zM683 0v341h341v-341h-341z" />
<glyph unicode="&#x26;" d="M0 171v682h171v171h-171v341h171v171h512v-171h170v-341h-170v-171h170v-170h171v170h171v-341h-171v-341h171v-171h-342v171h-170v-171h-512v171h-171zM341 171h171v170h171v171h-171v171h-171v-512zM341 1024h171v341h-171v-341z" />
<glyph unicode="'" d="M171 853v171h170v512h342v-512h-171v-171h-341z" />
<glyph unicode="(" d="M171 512v512h170v171h171v170h171v171h341v-171h-171v-170h-170v-171h-171v-512h171v-171h170v-170h171v-171h-341v171h-171v170h-171v171h-170z" />
<glyph unicode=")" d="M171 0v171h170v170h171v171h171v512h-171v171h-171v170h-170v171h341v-171h171v-170h170v-171h171v-512h-171v-171h-170v-170h-171v-171h-341z" />
<glyph unicode="*" d="M0 683v170h341v171h-170v171h341v-171h341v171h342v-171h-171v-171h341v-170h-341v-171h171v-171h-342v171h-341v-171h-341v171h170v171h-341z" />
<glyph unicode="+" d="M171 683v170h341v342h341v-342h342v-170h-342v-342h-341v342h-341z" />
<glyph unicode="," d="M171 0h170v341h512v-341h-341v-171h-341v171z" />
<glyph unicode="-" d="M0 683v170h1195v-170h-1195z" />
<glyph unicode="." d="M341 0v341h512v-341h-512z" />
<glyph unicode="/" d="M0 0v341h171v171h170v171h171v170h171v171h170v171h171v170h171v-341h-171v-171h-171v-170h-170v-171h-171v-171h-171v-170h-170v-171h-171z" />
<glyph unicode="0" d="M0 171v1194h171l21 171h832v-171h171v-1194h-171v-171h-853v171h-171zM341 171h512v682h-170v-341h-171v-171h-171v-170zM341 683h171v341h171v171h170v170h-512v-682z" />
<glyph unicode="1" d="M0 0v171h341v853h-341v171h341v170h171v171h171v-1365h341v-171h-1024z" />
<glyph unicode="2" d="M0 0v341h171v171h170v171h171v170h171v512h-342v-341h-341v341h171l21 171h661v-171h171v-512h-171v-170h-170v-171h-171v-171h-171v-170h342v170h341v-341h-1024z" />
<glyph unicode="3" d="M0 171v170h341v-170h342v512h-342v170h342v512h-342v-170h-341v170h171l21 171h661v-171h171v-512h-171v-170h171v-512h-171v-171h-682v171h-171z" />
<glyph unicode="4" d="M0 512v341h171v171h170v171h171v170h171v171h341v-853h171v-171h-171v-341h171v-171h-683v171h171v341h-683zM341 683h342v341h-171v-171h-171v-170z" />
<glyph unicode="5" d="M0 171v170h341v-170h342v512h-683v853h1024v-171h-683v-512h512v-170h171v-512h-171v-171h-682v171h-171z" />
<glyph unicode="6" d="M0 171v1024h171v170h170v171h512v-171h-341v-170h-171v-342h512v-170h171v-512h-171v-171h-682v171h-171zM341 171h342v512h-342v-512z" />
<glyph unicode="7" d="M0 1024v512h1195v-683h-171v-170h-171v-171h-170v-512h-342v512h171v171h171v170h170v512h-512v-341h-341z" />
<glyph unicode="8" d="M0 171v512h171v170h-171v512h171v171h682v-171h171v-512h-171v-170h171v-512h-171v-171h-682v171h-171zM341 171h342v341h-171v171h-171v-512zM341 1024h171v-171h171v512h-342v-341z" />
<glyph unicode="9" d="M0 853v512h171l21 171h661v-171h171v-682h-171v-342h-170v-341h-512v171h170v170h171v342h-341v170h-171zM341 853h342v512h-342v-512z" />
<glyph unicode=":" d="M341 171v341h512v-341h-512zM341 853v342h512v-342h-512z" />
<glyph unicode=";" d="M341 0h171v171h-171v341h512v-512h-170v-171h-342v171zM341 853v342h512v-342h-512z" />
<glyph unicode="&#x3c;" d="M0 683v170h171v171h170v171h171v170h171v171h341v-171h-171v-170h-170v-171h-171v-171h-171v-170h171v-171h171v-171h170v-170h171v-171h-341v171h-171v170h-171v171h-170v171h-171z" />
<glyph unicode="=" d="M171 512v171h1024v-171h-1024zM171 853v171h1024v-171h-1024z" />
<glyph unicode="&#x3e;" d="M171 0v171h170v170h171v171h171v171h170v170h-170v171h-171v171h-171v170h-170v171h341v-171h171v-170h170v-171h171v-171h171v-170h-171v-171h-171v-171h-170v-170h-171v-171h-341z" />
<glyph unicode="?" d="M0 1195v170h171l21 171h661v-171h171v-341h-171v-171h-170v-341h-342v341h171v171h171v341h-342v-170h-341zM341 0v341h342v-341h-342z" />
<glyph unicode="@" d="M0 171v1194h171l21 171h832v-171h171v-853h-683v512h341v341h-512v-1194h683v-171h-853v171h-171z" />
<glyph unicode="A" d="M0 0v1195h171v170h170v171h342v-171h170v-170h171v-1195h-341v512h-342v-512h-341zM341 683h342v512h-342v-512z" />
<glyph unicode="B" d="M0 0v171h171v1194h-171v171h1024v-171h171v-512h-171v-170h171v-512h-171v-171h-1024zM512 171h341v512h-341v-512zM512 853h341v512h-341v-512z" />
<glyph unicode="C" d="M0 341v854h171l21 170h149l22 171h661v-171h171v-341h-342v341h-341v-170h-171v-854h171v-170h341v341h342v-341h-171v-171h-683v171h-170v170h-171z" />
<glyph unicode="D" d="M0 0v171h171v1194h-171v171h853v-171h171v-170h171v-854h-171v-170h-171v-171h-853zM512 171h171v170h170v854h-170v170h-171v-1194z" />
<glyph unicode="E" d="M0 0v171h171v1194h-171v171h1195v-341h-171v170h-512v-512h341v171h171v-512h-171v171h-341v-512h512v170h171v-341h-1195z" />
<glyph unicode="F" d="M0 0v171h171v1194h-171v171h1195v-512h-171v-512h-171v171h-341v-512h171v-171h-683zM512 853h341v171h171v171h-171v170h-341v-512z" />
<glyph unicode="G" d="M0 341v854h171l21 170h149l22 171h661v-171h171v-341h-342v341h-341v-170h-171v-854h171v-170h341v341h-170v171h512v-683h-854v171h-170v170h-171z" />
<glyph unicode="H" d="M0 0v1536h341v-683h342v683h341v-1536h-341v683h-342v-683h-341z" />
<glyph unicode="I" d="M171 0v171h170v1194h-170v171h682v-171h-170v-1194h170v-171h-682z" />
<glyph unicode="J" d="M0 171v512h341v-512h342v1194h-171v171h683v-171h-171v-1194h-171v-171h-682v171h-171z" />
<glyph unicode="K" d="M0 0v171h171v1194h-171v171h512v-683h171v342h170v341h342v-341h-171v-342h-171v-170h171v-342h171v-341h-342v341h-170v342h-171v-683h-512z" />
<glyph unicode="L" d="M0 0v171h171v1194h-171v171h683v-171h-171v-1194h341v341h171v171h171v-683h-1195z" />
<glyph unicode="M" d="M0 0v1536h341v-171h171v-170h171v170h170v171h342v-1536h-342v853l-173 3v-168l-168 -5v170h-171v-853h-341z" />
<glyph unicode="N" d="M0 0v1536h341v-341h171v-171h171v-171h170v683h342v-1536h-342v341h-170v171h-171v171h-171v-683h-341z" />
<glyph unicode="O" d="M0 341v854h171v170h170v171h512v-171h171v-170h171v-854h-171v-170h-171v-171h-512v171h-170v170h-171zM341 341h171v-170h171v170h170v854h-170v170h-171v-170h-171v-854z" />
<glyph unicode="P" d="M0 0v171h171v1194h-171v171h1024v-171h171v-512l-171 -21v-149h-512v-512h171v-171h-683zM512 853h341v512h-341v-512z" />
<glyph unicode="Q" d="M0 363v832h171v170h170v171h512v-171h171v-170h171v-854h-171v-341h171v-171h-683v171h171v171h-512v170zM341 341h171v171h171v171h170v512h-170v170h-171v-170h-171v-854z" />
<glyph unicode="R" d="M0 0v171h171v1194h-171v171h1024v-171h171v-512h-171v-341h171v-512h-342v512h-170v171h-171v-683h-512zM512 853h341v512h-341v-512z" />
<glyph unicode="S" d="M0 171v341h341v-341h342v341h-171v171h-341v170h-171v512h171v171h682v-171h171v-341h-341v341h-342v-512h342v-170l170 -22v-149h171v-341h-171v-171h-682v171h-171z" />
<glyph unicode="T" d="M0 1195v341h1024v-341h-171v170h-170v-1194h170v-171h-682v171h170v1194h-170v-170h-171z" />
<glyph unicode="U" d="M0 171v1365h341v-1365h342v1365h341v-1365h-171v-171h-682v171h-171z" />
<glyph unicode="V" d="M0 341v1195h341v-1195h342v1195h341v-1195h-171v-170h-170v-171h-342v171h-170v170h-171z" />
<glyph unicode="W" d="M0 512v1024h341v-1024h171v341h171v-341h170v1024h342v-1024h-171v-512h-341v512h-171v-512h-341v512h-171z" />
<glyph unicode="X" d="M0 0v512h171v171h170v170h-170v171h-171v512h341v-512h342v512h341v-512h-171v-171h-170v-170h170v-171h171v-512h-341v512h-342v-512h-341z" />
<glyph unicode="Y" d="M0 875v661h341v-683h342v683h341v-683h-171v-170h-170v-512h170v-171h-682v171h170v512h-170v170z" />
<glyph unicode="Z" d="M0 0v341h171v342h170v170h171v342h171v170h-342v-170h-170v-171h-171v512h1195v-341h-342v-342h-170v-170h-171v-342h-171v-170h512v170h171v171h171v-512h-1195z" />
<glyph unicode="[" d="M341 0v1536h683v-171h-341v-1194h341v-171h-683z" />
<glyph unicode="\" d="M0 1024v341h171v-170h170v-171h171v-171h171v-170h170v-171h171v-171h171v-341h-171v171h-171v170h-170v171h-171v171h-171v170h-170v171h-171z" />
<glyph unicode="]" d="M341 0v171h342v1194h-342v171h683v-1536h-683z" />
<glyph unicode="^" d="M0 1024v171h171v170h170v171h171v171h171v-171h170v-171h171v-170h171v-171h-342v171h-170v170h-171v-170h-171v-171h-341z" />
<glyph unicode="_" d="M0 0h1365v-171h-1365v171z" />
<glyph unicode="`" d="M341 1365v342h342v-342h170v-170h-341v170h-171z" />
<glyph unicode="a" d="M0 171v341h171v171h512v170h-512v171h682v-171h171v-682h171v-171h-342v171h-170v-171h-512v171h-171zM341 171h342v341h-342v-341z" />
<glyph unicode="b" d="M0 0v171h171v1194h-171v171h512v-512h512v-171h171v-682h-171v-171h-512v171h-171v-171h-341zM512 171h341v682h-341v-682z" />
<glyph unicode="c" d="M0 171v682h171l21 171h661v-171h171v-170h-341v170h-342v-682h342v170h341v-170h-171v-171h-682v171h-171z" />
<glyph unicode="d" d="M0 171v682h171v171h512v341h-171v171h512v-1365h171v-171h-342v171h-170v-171h-512v171h-171zM341 171h342v682h-342v-682z" />
<glyph unicode="e" d="M0 171v682h171l21 171h661v-171h171v-341h-683v-341h342v170h341v-170h-171v-171h-682v171h-171zM341 683h342v170h-342v-170z" />
<glyph unicode="f" d="M0 0v171h171v512h-171v170h171v512h170v171h512v-171h171v-170h-341v170h-171v-512l336 3l5 -173h-341v-512h171v-171h-683z" />
<glyph unicode="g" d="M0 0h341v-171h342v342h-512v170h-171v512h171v171h512v-171h170v171h342v-171h-171v-1024h-171v-170h-682v170h-171v171zM341 341h342v512h-342v-512z" />
<glyph unicode="h" d="M0 0v171h171v1194h-171v171h512v-683h171v171h341v-171h171v-853h-342v853h-170v-170h-171v-683h-512z" />
<glyph unicode="i" d="M171 0v171h341v682h-341v171h682v-853h342v-171h-1024zM512 1195v341h341v-341h-341z" />
<glyph unicode="j" d="M0 171h341v-342h342v1024h-342v171h683v-1195h-171v-170h-682v170h-171v342zM683 1195v341h341v-341h-341z" />
<glyph unicode="k" d="M0 0v171h171v1194h-171v171h512v-853h171v170h170v171h342v-171h-171v-170h-171v-171h171v-171h171v-341h-342v341h-170v171h-171v-512h-512z" />
<glyph unicode="l" d="M171 0v171h341v1194h-341v171h682v-1365h342v-171h-1024z" />
<glyph unicode="m" d="M0 0v1024h1024v-171h171v-853h-342v853h-170v-682h-171v682h-171v-853h-341z" />
<glyph unicode="n" d="M0 0v1024h853v-171h171v-853h-341v853h-342v-853h-341z" />
<glyph unicode="o" d="M0 171v682h171l-3 171h685v-171h171v-682h-171v-171h-682v171h-171zM341 171h342v682h-342v-682z" />
<glyph unicode="p" d="M0 -171h171v1024h-171v171h341v-171h171v171h512v-171h171v-682h-171v-171h-512v-171h171v-170h-683v170zM512 171h341v682h-341v-682z" />
<glyph unicode="q" d="M0 192v661h171l13 171h499v-171h170v171h342v-171h-171v-1024h171v-170h-683v170h171v171h-512v171zM341 171h342v682h-342v-682z" />
<glyph unicode="r" d="M0 0v171h171v682h-171v171h512v-341h171v341h341v-171h171v-341h-342v171h-170v-171h-171v-341h171v-171h-683z" />
<glyph unicode="s" d="M0 171v170h341v-170h342v170h-171v171h-341v171h-171v170h171v171h682v-171h171v-170h-341v170h-342v-170h171v-171h341v-171h171v-170h-171v-171h-682v171h-171z" />
<glyph unicode="t" d="M0 853v171h171v171h170v170h171v-341h512v-171h-512v-682h171v170h341v-170h-171v-171h-512v171h-170v682h-171z" />
<glyph unicode="u" d="M0 171v853h341v-853h342v853h341v-853h171v-171h-342v171h-170v-171h-512v171h-171z" />
<glyph unicode="v" d="M0 341v683h341v-683h342v683h341v-683h-171v-170h-170v-171h-342v171h-170v170h-171z" />
<glyph unicode="w" d="M0 341v683h341v-683h171v342h171v-342h170v683h342v-683h-171v-341h-341v341h-171v-341h-341v341h-171z" />
<glyph unicode="x" d="M0 0v171h171v170h170v342h-170v170h-171v171h341v-171h171v-170h171v170h170v171h342v-171h-171v-170h-171v-342h171v-170h171v-171h-342v171h-170v170h-171v-170h-171v-171h-341z" />
<glyph unicode="y" d="M0 -171h512v171h171v171h-342v170l-170 22v661h341v-683h341v683h342v-683h-171v-341h-171v-171h-170v-170h-683v170z" />
<glyph unicode="z" d="M0 0v341h171v171h341v171h171v170h-512v-170h-171v341h1024v-341h-171v-171h-341v-171h-171v-170h512v170h171v-341h-1024z" />
<glyph unicode="{" d="M0 683v170h171v171h170v341h171v171h512v-171h-341v-341h-171v-171h-171v-170h171v-171h171v-341h341v-171h-512v171h-171v341h-170v171h-171z" />
<glyph unicode="|" d="M512 0v683h341v-683h-341zM512 853v683h341v-683h-341z" />
<glyph unicode="}" d="M0 0v171h341v341h171v171h171v170h-171v171h-171v341h-341v171h512v-171h171v-341h170v-171h171v-170h-171v-171h-170v-341h-171v-171h-512z" />
<glyph unicode="~" d="M0 1024v341h171l-3 171h515v-171h170v-170h171v341h341v-171h-170v-341h-512v171h-171v170h-171v-341h-341z" />
<glyph d="M0 171v512h171v170h170v171h171v171h171v-171h170v-171h171v-170h171v-512h-1195zM341 341h512v342h-170v170h-171v-170h-171v-342z" />
<glyph d="M0 -171h341v171h-170v171l-171 21v1173h171v171h682v-171h171v-341h-341v341h-342v-1194h342v341h341v-341h-171v-171h-170v-341h-683v170z" />
<glyph d="M0 171v853h341v-853h342v853h341v-853h171v-171h-342v171h-170v-171h-512v171h-171zM0 1195v341h341v-341h-341zM683 1195v341h341v-341h-341z" />
<glyph d="M0 171v682h171l-3 171h685v-171h171v-341h-683v-341h342v170h341v-170h-171v-171h-682v171h-171zM341 683h342v170h-342v-170zM341 1195v170h171v171h171v171h341v-171h-171v-171h-170v-170h-342z" />
<glyph d="M0 171v341h171v171h512v170h-512v171h682v-171h171v-682h171v-171h-342v171h-170v-171h-512v171h-171zM0 1195v170h171v171h170v171h342v-171h170v-171h171v-170h-341v170h-342v-170h-341zM341 171h342v341h-342v-341z" />
<glyph d="M0 171v341h171v171h512v170h-512v171h682v-171h171v-682h171v-171h-342v171h-170v-171h-512v171h-171zM0 1195v341h341v-341h-341zM341 171h342v341h-342v-341zM683 1195v341h341v-341h-341z" />
<glyph unicode="&#x85;" d="M0 171v341h171v171h512v170h-512v171h682v-171h171v-682h171v-171h-342v171h-170v-171h-512v171h-171zM0 1536v171h341v-171h171v-171h171v-170h-342v170h-170v171h-171zM341 171h342v341h-342v-341z" />
<glyph d="M0 171v341h171v171h512v170h-683v171h341v171h-170v341h170v171h512v-171l171 -21v-320h-171v-342h171v-682h171v-171h-342v171h-170v-171h-512v171h-171zM341 171h342v341h-342v-341zM512 1195h171v341h-171v-341z" />
<glyph d="M0 -171h341v171l-170 21v150l-171 21v661h171v171h682v-171h171v-170h-341v170h-342v-682h342v170h341v-170h-171v-171h-170v-341h-683v170z" />
<glyph d="M0 171v682h171l21 171h661v-171h171v-341h-683v-341h683v-171h-853v171h-171zM0 1195v170h171v171h170v171h342v-171h170v-171h171v-170h-341v170h-342v-170h-341zM341 683h342v170h-342v-170z" />
<glyph d="M0 171v682h171l21 171h661v-171h171v-341h-683v-341h683v-171h-853v171h-171zM0 1195v341h341v-341h-341zM341 683h342v170h-342v-170zM683 1195v341h341v-341h-341z" />
<glyph d="M0 171v682h171l21 171h661v-171h171v-341h-683v-341h683v-171h-853v171h-171zM0 1536v171h341v-171h171v-171h171v-170h-342v170h-170v171h-171zM341 683h342v170h-342v-170z" />
<glyph d="M171 0v171h341v682h-341v171h682v-853h342v-171h-1024zM171 1195v341h341v-341h-341zM683 1195v341h341v-341h-341z" />
<glyph d="M171 0v171h341v682h-341v171h682v-853h342v-171h-1024zM171 1195v170h170v171h171v171h171v-171h170v-171h171v-170h-341v170h-171v-170h-341z" />
<glyph d="M171 0v171h341v682h-341v171h682v-853h342v-171h-1024zM171 1536v171h341v-171h171v-171h170v-170h-341v170h-171v171h-170z" />
<glyph d="M0 0v853h171v171h170v171h342v-171h170v-171h171v-853h-341v341h-342v-341h-341zM0 1365v171h341v-171h-341zM341 512h342v341h-342v-341zM683 1365v171h341v-171h-341z" />
<glyph d="M0 0v853h171v342h-171v341h171v171h682v-171h171v-341h-171v-342l171 -21v-832h-341v341h-342v-341h-341zM341 512h342v341h-342v-341zM341 1195h342v341h-342v-341z" />
<glyph d="M0 0v1195h341v170h171v171h171v171h341v-171h-171v-171h-170v-170h341v-342h-171v171h-512v-341h512v-171h-512v-341h512v170h171v-341h-1024z" />
<glyph d="M0 0v512h171v171h341v170h-512v171h1195v-171h170v-341h-512v-341h512v-171h-682v171h-171v-171h-512zM341 171h171v341h-171v-341zM853 683h171v170h-171v-170z" />
<glyph d="M0 0v1195h171v170h170l22 171h832v-171h-342v-512h342v-170h-342v-512h342v-171h-683v683h-171v-683h-341zM341 853h171v342h-171v-342z" />
<glyph d="M0 171v682h171l21 171h661v-171h171v-682h-171v-171h-682v171h-171zM0 1195v170h171v171h170v171h342v-171h170v-171h171v-170h-341v170h-342v-170h-341zM341 171h342v682h-342v-682z" />
<glyph d="M0 171v682h171l21 171h661v-171h171v-682h-171v-171h-682v171h-171zM0 1195v341h341v-341h-341zM341 171h342v682h-342v-682zM683 1195v341h341v-341h-341z" />
<glyph d="M0 171v682h171l21 171h661v-171h171v-682h-171v-171h-682v171h-171zM0 1536v171h341v-171h171v-171h171v-170h-342v170h-170v171h-171zM341 171h342v682h-342v-682z" />
<glyph d="M0 171v853h341v-853h342v853h341v-853h171v-171h-342v171h-170v-171h-512v171h-171zM0 1195v170h171v171h170v171h342v-171h170v-171h171v-170h-341v170h-342v-170h-341z" />
<glyph d="M0 171v853h341v-853h342v853h341v-853h171v-171h-342v171h-170v-171h-512v171h-171zM0 1536v171h341v-171h171v-171h171v-170h-342v170h-170v171h-171z" />
<glyph d="M0 -171h512v171h171v171h-342v170l-170 22v661h341v-683h341v683h342v-683h-171v-341h-171v-171h-170v-170h-683v170zM171 1195v341h341v-341h-341zM853 1195v341h342v-341h-342z" />
<glyph d="M0 171v1024h171l21 170h661v-170h171v-1024h-171v-171h-682v171h-171zM0 1536v171h341v-171h-341zM341 171h342v1024h-342v-1024zM683 1536v171h341v-171h-341z" />
<glyph d="M0 171v1194h341v-1194h342v1194h341v-1194h-171v-171h-682v171h-171zM0 1536v171h341v-171h-341zM683 1536v171h341v-171h-341z" />
<glyph d="M0 341v683h171v171h170v341h342v-341h170v-171h171v-171h-341v171h-342v-683h342v171h341v-171h-171v-170h-170v-342h-342v342h-170v170h-171z" />
<glyph d="M0 0v341h171v342h-171v170h171v683h170v171h683v-171h171v-171h-342v171h-341v-683h512v-170h-512v-342h-171v-170h854v-171h-1195z" />
<glyph d="M0 341v171h341v171h-341v170h171v171l-171 21v662h341v-683h342v683h341v-683h-171v-171h171v-170h-341v-171h341v-171h-341v-341h-342v341h-341z" />
<glyph d="M0 0v1707h683v-171h170v-512h-170v-171h170v-170h342v-171h-171v-341h171v170h170v-170h-170v-171h-342v171h-170v341h-171v171h171v170h-512v-853h-171zM171 1024h512v512h-512v-512z" />
<glyph d="M0 171v170h341v-170h171v682h-341v171h341v512h171v171h512v-171h170v-171h-341v171h-171v-512h342v-171h-342v-682h-170v-171h-512v171h-171z" />
<glyph unicode="&#xa0;" d="M0 171v341h171v171h512v170h-512v171h682v-171h171v-682h171v-171h-342v171h-170v-171h-512v171h-171zM341 171h342v341h-342v-341zM341 1195v170h171v171h171v171h341v-171h-171v-171h-170v-170h-342z" />
<glyph unicode="&#xa1;" d="M171 0v171h341v682h-341v171h682v-853h342v-171h-1024zM341 1195v170h171v171h171v171h341v-171h-171v-171h-170v-170h-342z" />
<glyph unicode="&#xa2;" d="M0 171v682h171l21 171h661v-171h171v-682h-171v-171h-682v171h-171zM341 171h342v682h-342v-682zM341 1195v170h171v171h171v171h341v-171h-171v-171h-170v-170h-342z" />
<glyph unicode="&#xa3;" d="M0 171v853h341v-853h342v853h341v-853h171v-171h-342v171h-170v-171h-512v171h-171zM341 1195v170h171v171h171v171h341v-171h-171v-171h-170v-170h-342z" />
<glyph unicode="&#xa4;" d="M0 0v1024h853v-171h171v-853h-341v853h-342v-853h-341zM0 1195v170h171l21 171h491v-171h170v171h342v-171h-171v-170h-512v170h-171v-170h-341z" />
<glyph unicode="&#xa5;" d="M0 0v1195h341v-171h171v-171h171v-170h170v512h342v-1195h-342v341h-170v171h-171v171h-171v-683h-341zM0 1365v171h171l21 171h491v-171h170v171h342v-171h-171v-171h-512v171h-171v-171h-341z" />
<glyph unicode="&#xa6;" d="M0 512v171h1195v-171h-1195zM0 1024v341h171l21 171h661v-171h171v-341h171v-171h-1024v171h-171zM341 1024h342v341h-342v-341z" />
<glyph unicode="&#xa7;" d="M0 512v171h1195v-171h-1195zM0 1024v341h171l21 171h661v-171h171v-341h-171v-171h-682v171h-171zM341 1024h342v341h-342v-341z" />
<glyph unicode="&#xa8;" d="M0 171v512h171v170h170v171h342v-171h-171v-170h-171v-512h342v170h341v-170h-171v-171h-682v171h-171zM341 1195v341h342v-341h-342z" />
<glyph unicode="&#xa9;" d="M0 171v682h1024v-170h-683v-512h-341z" />
<glyph unicode="&#xaa;" d="M0 683v170h1024v-682h-341v512h-683z" />
<glyph unicode="&#xab;" d="M0 171v341h171v171h170v170l-341 3v509h171v171h170v-683h171v171h171v171h170v170h171v171h171v-341h-171v-171h-171v-171h-170v-170h512v-171h165l5 -171h-170v-170h-171v-171h341v-171h-853v171h171v171h170v170h171v171h-341v171h-171v-171h-171v-171h-170v-170h-171 z" />
<glyph unicode="&#xac;" d="M0 171v341h171v171h170v170l-170 22v320h-171v170h171v171h341v-512h171v171h170v170h171v171h341v-171h-170v-170h-171v-171h-171v-171h512v-1024h-341v171h-683v341h-170v-170h-171zM341 341h171v171h-171v-171zM512 512h171v171h-171v-171zM683 171h341v341h-171v-171 h-170v-170zM683 683h170v170h-170v-170z" />
<glyph unicode="&#xad;" d="M171 171v512h170v341h342v-341h170v-512h-170v-171h-342v171h-170zM341 1195v341h342v-341h-342z" />
<glyph unicode="&#xae;" d="M0 341v342h171v170h170v171h342v-171h-171v-170h-171v-342h171v-170h171v-171h-342v171h-170v170h-171zM683 341v342h170v170h171v171h341v-171h-170v-170h-171v-342h171v-170h170v-171h-341v171h-171v170h-170z" />
<glyph unicode="&#xaf;" d="M0 0v171h171v170h170v342h-170v170h-171v171h341v-171h171v-170h171v-342h-171v-170h-171v-171h-341zM683 0v171h170v170h171v342h-171v170h-170v171h341v-171h171v-170h170v-342h-170v-170h-171v-171h-341z" />
<glyph unicode="&#xb0;" d="M0 0h171v-171h170v-170h-170v170h-171v171zM0 341v171h171v-171h170v-170h171v-171h171v-171h170v-170h-170v170h-171v171h-171v171h-170v170h-171zM0 853v171h171v-171l165 3v-168l176 -5v-171h171v-171h170v-170h171v-171h171v-171h170v-170h-170v170l-171 3v168h-171 v171h-170v170h-171v171h-171v171h-170v170h-171zM0 1365v171h171v-171l165 3v-168l176 -5v-171h171v-171h170v-170h171v-171h171v-171h170v-170h-170v170l-171 3v168h-171v171h-170v170h-171v171h-171v171h-170v170h-171zM341 1536v171h171v-171h171v-171h170v-170h171v-171 h171v-171h170v-170h-170v170h-171v171h-171v171h-170v170h-171v171h-171zM853 1536v171h171v-171h171v-171h170v-170h-170v170h-171v171h-171z" />
<glyph unicode="&#xb1;" d="M0 0v171h171v170h-171v171h171v171h-171v170h171v171h-171v171h171v170h-171v171h171v171h170v-171h171l21 171h150v-171h170v171h171v-171h171v171h170v-171h-170v-171h170v-170h-170v-171h170v-171h-170v-170h170v-171h-170v-171h170v-170h-170v-171h170v-171h-170 v-170h-171v170h-171l-21 -170h-149v170h-171v-170h-171v170h-170v-170h-171v170h171v171h-171zM171 0h170v171h-170v-171zM171 341h170v171h-170v-171zM171 683h170v170h-170v-170zM171 1024h170v171h-170v-171zM171 1365h170v171h-170v-171zM341 0v-171h171v171h-171z M341 171h171v170h-171v-170zM341 512h171v171h-171v-171zM341 853h171v171h-171v-171zM341 1195h171v170h-171v-170zM512 0h171v171h-171v-171zM512 341h171v171h-171v-171zM512 683h171v170h-171v-170zM512 1024h171v171h-171v-171zM512 1365h171v171h-171v-171zM683 0 v-171h170v171h-170zM683 171h170v170h-170v-170zM683 512h170v171h-170v-171zM683 853h170v171h-170v-171zM683 1195h170v170h-170v-170zM853 0h171v171h-171v-171zM853 341h171v171h-171v-171zM853 683h171v170h-171v-170zM853 1024h171v171h-171v-171zM853 1365h171v171 h-171v-171zM1024 0v-171h171v171h-171zM1024 171h171v170h-171v-170zM1024 512h171v171h-171v-171zM1024 853h171v171h-171v-171zM1024 1195h171v170h-171v-170z" />
<glyph unicode="&#xb2;" d="M0 0h171v171h-171v341h171v171h-171v341h171v171h-171v341h171v171h341v-171h171l21 171h320v-171h171v171h170v-342h-170v-170h170v-342h-170v-170h170v-342h-170v-170h170v-342h-170v-170h-342v170h-170l-22 -170h-320v170h-170v-170h-171v341zM171 171h170v170h-170 v-170zM171 683h170v170h-170v-170zM171 1195h170v170h-170v-170zM341 0v-171h171v171h-171zM341 341h171v171h-171v-171zM341 853h171v171h-171v-171zM341 1365h171v171h-171v-171zM512 0h171v171h-171v-171zM512 512h171v171h-171v-171zM512 1024h171v171h-171v-171z M683 171h170v170h-170v-170zM683 683h170v170h-170v-170zM683 1195h170v170h-170v-170zM853 0v-171h171v171h-171zM853 341h171v171h-171v-171zM853 853h171v171h-171v-171zM853 1365h171v171h-171v-171zM1024 0h171v171h-171v-171zM1024 512h171v171h-171v-171zM1024 1024 h171v171h-171v-171z" />
<glyph unicode="&#xb3;" d="M512 -341v2048h341v-2048h-341z" />
<glyph unicode="&#xb4;" d="M0 683v170h512v854h341v-2048h-341v1024h-512z" />
<glyph unicode="&#xb5;" d="M0 341v171h512v341h-512v171h512v683h341v-2048h-341v682h-512z" />
<glyph unicode="&#xb6;" d="M0 683v170h171v854h341v-2048h-341v1024h-171zM853 -341v2048h342v-2048h-342z" />
<glyph unicode="&#xb7;" d="M0 683v170h1195v-1194h-342v1024h-341v-1024h-341v1024h-171z" />
<glyph unicode="&#xb8;" d="M0 341v171h512v341h-512v171h853v-1365h-341v682h-512z" />
<glyph unicode="&#xb9;" d="M0 341v171h512v-853h-341v682h-171zM0 853v171h171v683h341v-854h-512zM853 -341v2048h342v-2048h-342z" />
<glyph unicode="&#xba;" d="M171 -341v2048h341v-2048h-341zM853 -341v2048h342v-2048h-342z" />
<glyph unicode="&#xbb;" d="M0 341v171h512v-853h-341v682h-171zM0 853v171h1195v-1365h-342v1194h-853z" />
<glyph unicode="&#xbc;" d="M0 341v171h853v1195h342v-1366h-1195zM0 853v171h171v683h341v-854h-512z" />
<glyph unicode="&#xbd;" d="M0 683v170h171v854h341v-854h341v854h342v-1024h-1195z" />
<glyph unicode="&#xbe;" d="M0 341v171h512v341h-512v171h512v683h341v-1366h-853z" />
<glyph unicode="&#xbf;" d="M0 683v170h853v-1194h-341v1024h-512z" />
<glyph unicode="&#xc0;" d="M512 683v1024h341v-854h512v-170h-853z" />
<glyph unicode="&#xc1;" d="M0 683v170h512v854h341v-854h512v-170h-1365z" />
<glyph unicode="&#xc2;" d="M0 683v170h1365v-170h-512v-1024h-341v1024h-512z" />
<glyph unicode="&#xc3;" d="M512 -341v2048h341v-854h512v-170h-512v-1024h-341z" />
<glyph unicode="&#xc4;" d="M0 683v170h1365v-170h-1365z" />
<glyph unicode="&#xc5;" d="M0 683v170h512v854h341v-854h512v-170h-512v-1024h-341v1024h-512z" />
<glyph unicode="&#xc6;" d="M512 -341v2048h341v-683h512v-171h-512v-341h512v-171h-512v-682h-341z" />
<glyph unicode="&#xc7;" d="M171 -341v2048h341v-2048h-341zM853 -341v2048h342v-854h170v-170h-170v-1024h-342z" />
<glyph unicode="&#xc8;" d="M171 341v1366h341v-1195h853v-171h-1194zM853 853v854h342v-683h170v-171h-512z" />
<glyph unicode="&#xc9;" d="M171 -341v1365h1194v-171h-853v-1194h-341zM853 -341v853h512v-171h-170v-682h-342z" />
<glyph unicode="&#xca;" d="M0 341v171h1365v-171h-1365zM0 853v171h171v683h341v-854h-512zM853 853v854h342v-683h170v-171h-512z" />
<glyph unicode="&#xcb;" d="M0 341v171h512v-853h-341v682h-171zM0 853v171h1365v-171h-1365zM853 -341v853h512v-171h-170v-682h-342z" />
<glyph unicode="&#xcc;" d="M171 -341v2048h341v-2048h-341zM853 -341v853h512v-171h-170v-682h-342zM853 853v854h342v-683h170v-171h-512z" />
<glyph unicode="&#xcd;" d="M0 341v171h1365v-171h-1365zM0 853v171h1365v-171h-1365z" />
<glyph unicode="&#xce;" d="M0 341v171h512v-853h-341v682h-171zM0 853v171h171v683h341v-854h-512zM853 -341v853h512v-171h-170v-682h-342zM853 853v854h342v-683h170v-171h-512z" />
<glyph unicode="&#xcf;" d="M0 341v171h1365v-171h-1365zM0 853v171h512v683h341v-683h512v-171h-1365z" />
<glyph unicode="&#xd0;" d="M0 683v170h171v854h341v-854h341v854h342v-854h170v-170h-1365z" />
<glyph unicode="&#xd1;" d="M0 341v171h1365v-171h-512v-682h-341v682h-512zM0 853v171h1365v-171h-1365z" />
<glyph unicode="&#xd2;" d="M0 683v170h1365v-170h-170v-1024h-342v1024h-341v-1024h-341v1024h-171z" />
<glyph unicode="&#xd3;" d="M171 683v1024h341v-854h341v854h342v-854h170v-170h-1194z" />
<glyph unicode="&#xd4;" d="M512 341v1366h341v-683h512v-171h-512v-341h512v-171h-853z" />
<glyph unicode="&#xd5;" d="M512 -341v1365h853v-171h-512v-341h512v-171h-512v-682h-341z" />
<glyph unicode="&#xd6;" d="M171 -341v1194h1194v-170h-170v-1024h-342v1024h-341v-1024h-341z" />
<glyph unicode="&#xd7;" d="M0 683v170h171v854h341v-2048h-341v1024h-171zM853 -341v2048h342v-854h170v-170h-170v-1024h-342z" />
<glyph unicode="&#xd8;" d="M0 341v171h1365v-171h-512v-682h-341v682h-512zM0 853v171h512v683h341v-683h512v-171h-1365z" />
<glyph unicode="&#xd9;" d="M0 683v170h512v854h341v-1024h-853z" />
<glyph unicode="&#xda;" d="M512 -341v1194h853v-170h-512v-1024h-341z" />
<glyph unicode="&#xdb;" d="M0 -341v2048h1365v-2048h-1365z" />
<glyph unicode="&#xdc;" d="M0 -341v1024h1365v-1024h-1365z" />
<glyph unicode="&#xdd;" d="M0 -341v2048h683v-2048h-683z" />
<glyph unicode="&#xde;" d="M683 -341v2048h682v-2048h-682z" />
<glyph unicode="&#xdf;" d="M0 683v1024h1365v-1024h-1365z" />
<glyph unicode="&#xe0;" d="M0 171v682h171l21 171h491v-171h170v171h342v-341h-171v-342h171v-341h-342v171h-170v-171h-512v171h-171zM341 171h171v170h171v342h-171v170h-171v-682z" />
<glyph unicode="&#xe1;" d="M0 0v1365h171l21 171h661v-171h171v-341h-171v-171h171v-512h-171v-170h-512v-171h171v-171h-341v171h-171zM341 341h342v512h-171v171h171v341h-342v-1024z" />
<glyph unicode="&#xe2;" d="M0 0v1536h1024v-512h-341v341h-342v-1365h-341z" />
<glyph unicode="&#xe3;" d="M0 1365v171h1195v-171h-171v-1194h171v-171h-342v171h-170v1194h-171v-1365h-341v1365h-171z" />
<glyph unicode="&#xe4;" d="M0 0v341h171v342h170v170h-170v342h-171v341h1024v-512h-171v341h-512v-170h171v-342h171v-170h-171v-342h-171v-170h512v341h171v-512h-1024z" />
<glyph unicode="&#xe5;" d="M0 171v682h171l21 171h1003v-171h-342v-170h171v-512h-171v-171h-682v171h-171zM341 171h342v682h-342v-682z" />
<glyph unicode="&#xe6;" d="M0 -171h171v1195h341v-853h341v853h342v-853h170v-171h-341v171h-171v-171h-341v-171h-171v-170h-341v170z" />
<glyph unicode="&#xe7;" d="M0 853v171h171l21 171h491v-171h170v171h342v-171h-171v-171h-171v-682h342v-171h-512v171h-171v853h-171v-171h-341z" />
<glyph unicode="&#xe8;" d="M0 0v171h341v170h-170v171l-171 21v491h171v171h170v170h-341v171h1024v-171h-341v-170h170v-171l171 -21v-491h-171v-171h-170v-170h341v-171h-1024zM341 512h342v512h-342v-512z" />
<glyph unicode="&#xe9;" d="M0 171v1194h171l21 171h661v-171h171v-1194h-171v-171h-682v171h-171zM341 171h342v512h-342v-512zM341 853h342v512h-342v-512z" />
<glyph unicode="&#xea;" d="M0 0v171h171v512l-171 21v661h171v171h853v-171h171v-682h-171v-512h171v-171h-512v683h170v682h-512v-682l171 -22v-661h-512z" />
<glyph unicode="&#xeb;" d="M0 171v682h171v171h170v171h-170v170h170v171h683v-171h-512v-170h171v-171l170 -21v-150l171 -21v-661h-171v-171h-682v171h-171zM341 171h342v682h-342v-682z" />
<glyph unicode="&#xec;" d="M0 512v512h171v171h512v-171h170v171h342v-171h170v-512h-170v-171h-512v171h-171v-171h-341v171h-171zM341 512h171v512h-171v-512zM853 512h171v512h-171v-512z" />
<glyph unicode="&#xed;" d="M0 171v170h171v171h-171v512h171v171h682v170h342v-170h-171v-171h171v-512h-171v-171h-683v-170h-341zM341 683h171v341h-171v-341zM683 512h170v341h-170v-341z" />
<glyph unicode="&#xee;" d="M0 341v854h171v170h170l22 171h661v-171h-512v-170h-171v-342h683v-170h-683v-342h171v-170h512v-171h-683v171h-170v170h-171z" />
<glyph unicode="&#xef;" d="M0 0v1195h171l21 170h661v-170h171v-1195h-341v1195h-342v-1195h-341z" />
<glyph unicode="&#xf0;" d="M0 171v170h1024v-170h-1024zM0 683v170h1024v-170h-1024zM0 1195v170h1024v-170h-1024z" />
<glyph unicode="&#xf1;" d="M0 171v170h1024v-170h-1024zM0 853v171h341v341h342v-341h341v-171h-341v-341h-342v341h-341z" />
<glyph unicode="&#xf2;" d="M0 171v170h1024v-170h-1024zM171 512v171h170v170h171v342h-171v170h-170v171h341v-171h171v-170h170v-342h-170v-170h-171v-171h-341z" />
<glyph unicode="&#xf3;" d="M0 171v170h1024v-170h-1024zM171 853v342h170v170h171v171h341v-171h-170v-170h-171v-342h171v-170h170v-171h-341v171h-171v170h-170z" />
<glyph unicode="&#xf4;" d="M512 -341v1536h171v170h512v-170h170v-342h-341v342h-171v-1536h-341z" />
<glyph unicode="&#xf5;" d="M0 171v341h341v-341h171v1536h341v-1536h-170v-171h-512v171h-171z" />
<glyph unicode="&#xf6;" d="M0 683v170h1024v-170h-1024zM341 171v341h342v-341h-342zM341 1024v341h342v-341h-342z" />
<glyph unicode="&#xf7;" d="M0 171v341h171l21 171h491v-171h170v-171h171v342h341v-342h-170l-22 -170h-490v170h-171v171h-171v-341h-341zM0 853v342h171l21 170h491v-170h170v-171h171v341h341v-341h-170l-22 -171h-490v171h-171v171h-171v-342h-341z" />
<glyph unicode="&#xf8;" d="M171 853v512h170v171h683v-171h171v-512h-171v-170h-683v170h-170zM512 853h341v512h-341v-512z" />
<glyph unicode="&#xf9;" d="M512 683v341h512v-341h-512z" />
<glyph unicode="&#xfa;" d="M512 683v170h341v-170h-341z" />
<glyph unicode="&#xfb;" d="M171 512v341h170v-170h171v-171h171v-171h170v1195h512v-171h-341v-1365h-341v171h-171v170h-171v171h-170z" />
<glyph unicode="&#xfc;" d="M0 1365v171h341v-171h171v171h341v-171h171v-682h-341v682h-171v-682h-341v682h-171z" />
<glyph unicode="&#xfd;" d="M171 683v170h170v171h171v171h171v170h-512v171h682v-171h171v-170h-171v-171h-170v-171h341v-170h-853z" />
<glyph unicode="&#xfe;" d="M341 0v1365h683v-1365h-683z" />
<glyph unicode="&#x2000;" horiz-adv-x="853" />
<glyph unicode="&#x2001;" horiz-adv-x="1707" />
<glyph unicode="&#x2002;" horiz-adv-x="853" />
<glyph unicode="&#x2003;" horiz-adv-x="1707" />
<glyph unicode="&#x2004;" horiz-adv-x="569" />
<glyph unicode="&#x2005;" horiz-adv-x="426" />
<glyph unicode="&#x2006;" horiz-adv-x="284" />
<glyph unicode="&#x2007;" horiz-adv-x="284" />
<glyph unicode="&#x2008;" horiz-adv-x="213" />
<glyph unicode="&#x2009;" horiz-adv-x="341" />
<glyph unicode="&#x200a;" horiz-adv-x="94" />
<glyph unicode="&#x2010;" d="M0 683v170h1195v-170h-1195z" />
<glyph unicode="&#x2011;" d="M0 683v170h1195v-170h-1195z" />
<glyph unicode="&#x2012;" d="M0 683v170h1195v-170h-1195z" />
<glyph unicode="&#x2013;" horiz-adv-x="1195" d="M0 683v170h1024v-170h-1024z" />
<glyph unicode="&#x2014;" horiz-adv-x="2219" d="M0 683v170h2048v-170h-2048z" />
<glyph unicode="&#x202f;" horiz-adv-x="341" />
<glyph unicode="&#x205f;" horiz-adv-x="426" />
<glyph unicode="&#x25fc;" horiz-adv-x="1025" d="M0 0v1025h1025v-1025h-1025z" />
</font>
</defs>
</svg>
